<svg width="150" height="150" viewBox="0 0 150 150" fill="none" xmlns="http://www.w3.org/2000/svg">
<path d="M145.312 37.5C145.312 35.625 144.375 34.2188 142.969 33.2812L110.156 14.5312C109.219 14.0625 108.75 14.0625 107.812 14.0625C106.875 14.0625 106.406 14.0625 105.469 14.5312L75 31.875L44.5312 14.5312C43.5938 14.0625 43.125 14.0625 42.1875 14.0625C41.25 14.0625 40.7812 14.0625 39.8438 14.5312L7.03125 33.2812C5.625 34.2188 4.6875 35.625 4.6875 37.5V131.25C4.6875 134.062 6.5625 135.938 9.375 135.938C10.3125 135.938 10.7812 135.469 11.7188 135.469L42.1875 118.125L72.6562 135.469C73.5938 135.938 74.0625 135.938 75 135.938C75.9375 135.938 76.4062 135.938 77.3438 135.469L107.812 118.125L138.281 135.469C138.75 135.938 139.688 135.938 140.625 135.938C143.438 135.938 145.312 134.062 145.312 131.25V37.5ZM14.0625 40.3125L37.5 26.7187V109.688L14.0625 123.281V40.3125ZM70.3125 123.281L46.875 109.688V26.7187L70.3125 40.3125V123.281ZM103.125 109.688L79.6875 123.281V40.3125L103.125 26.7187V109.688ZM112.5 109.688V26.7187L135.938 40.3125V123.281L112.5 109.688Z" fill="#050112"/>
</svg>
