<svg width="226" height="219" viewBox="0 0 226 219" fill="none" xmlns="http://www.w3.org/2000/svg">
<g id="Camada 2">
<g id="Camada 1">
<path id="Vector" d="M214.113 85.939C211.669 81.8743 209.43 77.6767 206.954 73.623C205.559 71.4079 205.289 69.514 207.019 67.1438C212.826 59.1916 214.08 50.0432 213.14 40.4075C212.296 31.8019 211.193 23.2073 210.696 14.5794C210.231 6.42787 207.949 2.64004 200.033 1.167C183.781 -1.93574 166.982 1.19862 152.841 9.97203C149.803 11.7884 147.38 12.5637 143.866 11.6444C121.479 5.52673 97.8092 6.4881 75.9658 14.4022C74.4807 14.9938 72.8956 15.2769 71.3027 15.2351C69.7098 15.1933 68.141 14.8273 66.6875 14.1586C48.1201 6.18421 29.1958 4.84407 9.80657 11.0796C1.40421 13.7156 -0.85589 16.861 0.268751 25.4778C1.14467 32.2449 1.49072 39.0342 1.98815 45.8345C2.89652 58.3942 4.96197 70.6991 10.3797 82.1512C11.4079 84.2942 11.5975 86.7587 10.9096 89.0401C8.94343 96.2472 8.01447 103.709 8.15205 111.191C7.73031 118.656 9.23344 126.176 11.7747 133.53C25.1082 172.516 52.5213 197.259 88.8991 212.41C110.992 221.614 133.236 219.299 155.102 210.66C175.875 202.464 194.388 190.99 208.576 172.926C229.696 146.057 231.707 115.367 214.113 85.939ZM201.536 161.396C178.827 191.145 148.819 207.537 111.511 205.61C67.9419 203.395 27.2277 166.403 18.5117 122.477C16.4355 111.944 19.193 101.179 22.0911 90.9119C23.7889 84.8979 23.5077 79.9471 20.5447 74.21C13.905 61.5618 13.6022 47.3297 12.975 33.3857C12.8128 30.063 9.73088 25.8875 12.975 23.4177C15.4514 21.4573 19.366 21.2026 22.7075 20.6378C37.8469 18.0018 52.3699 20.6378 66.2009 27.3606C68.9043 28.6675 71.3266 29.2877 74.3761 28.0694C103.264 16.4549 131.819 17.3889 160.044 30.8715C161.471 31.5582 162.985 32.0677 165.018 32.8873C164.315 27.6043 160.022 25.7214 157.232 22.6646C159.157 19.5967 162.174 18.2344 165.169 17.1268C174.131 13.7951 183.6 12.1225 193.134 12.1871C196.778 12.1871 198.541 13.1286 198.811 17.4259C199.201 24.7578 200.347 32.0566 201.277 39.3554C201.994 45.2253 201.353 51.1857 199.406 56.755C198.162 60.421 196.162 61.739 192.788 58.6821C191.166 57.2313 189.673 54.994 186.7 55.5256C192.993 71.0313 200.206 85.7729 207.819 100.359C218.893 121.536 215.638 142.878 201.482 161.396H201.536Z" fill="white"/>
<path id="Vector_2" d="M164.618 112.653C149.695 99.8165 126.066 101.733 113.079 116.917C107.942 122.931 104.612 129.765 104.677 138.304C107.034 137.484 106.958 135.513 107.596 134.151C110.909 126.905 116.627 121.099 123.731 117.77C145.683 107.104 166.986 119.575 167.397 143.066C167.462 147.497 165.753 149.933 161.752 151.174C154.726 153.418 147.467 154.816 140.124 155.338C123.331 156.357 107.196 153.644 91.9055 146.267C90.2401 145.459 87.4826 144.44 89.2669 142.324C92.1218 139.002 89.1371 138.625 87.5583 138.26C83.5572 137.307 80.4644 139.046 78.9829 142.978C78.1394 145.193 77.7393 148.183 79.8372 149.623C82.6164 151.595 81.5134 146.389 83.7951 146.633C93.7006 186.693 123.558 195.808 147.153 187.8C142.828 184.478 138.675 180.956 140.535 174.676C142.471 168.186 146.44 164.066 153.512 163.257C157.234 162.716 160.879 161.719 164.369 160.289C169.43 158.395 173.539 155.283 175.183 149.623C178.568 138.326 173.41 120.207 164.618 112.653Z" fill="white"/>
<path id="Vector_3" d="M168.305 76.3254C167.808 70.6769 164.953 67.1992 158.162 65.8369C153.155 64.829 152.366 62.2374 153.36 57.5967C157.859 60.7422 161.687 58.4274 162.952 54.9054C164.218 51.3834 159.708 50.2869 157.08 49.2679C154.15 48.1604 151.252 47.6731 151.23 43.4422C151.23 41.3379 149.143 41.8584 147.802 41.8916C146.267 41.8916 143.704 41.6591 143.942 43.7413C144.493 48.5812 141.152 49.3676 138.145 50.9071C133.452 53.3105 131.333 57.3088 131.873 62.6804C132.414 68.052 135.669 71.3525 140.395 72.0835C147.056 73.1024 146.883 77.2557 146.375 82.2619C143.877 82.3837 142.449 80.8774 140.968 79.6481C137.356 76.6798 135.096 79.9028 133.257 81.9296C131.214 84.1447 134.177 85.352 135.496 86.526C137.499 88.3945 139.926 89.7196 142.557 90.3802C145.25 91.0115 147.683 91.5653 148.332 95.0873C148.775 97.4686 150.949 97.092 152.798 96.7708C154.236 96.5382 156.042 96.4939 155.675 94.4007C155.134 90.8897 157.416 90.192 159.838 89.1287C165.71 86.526 168.77 81.7081 168.305 76.3254ZM143.963 64.3749C142.287 64.0427 141.898 62.4256 141.8 61.0523C141.703 59.6789 142.525 58.1616 143.779 58.1726C146.299 58.1726 145.142 60.5428 145.52 61.9162C145.315 62.913 146.245 64.829 143.963 64.3749ZM157.253 80.4344C156.561 81.2319 155.815 82.1954 154.388 81.4534C154.224 80.3988 154.159 79.3308 154.193 78.2636C154.366 76.7463 153.252 74.7638 155.091 73.8334C156.172 73.3129 156.929 74.4315 157.567 75.4172C158.139 76.1412 158.424 77.059 158.366 77.9885C158.308 78.918 157.911 79.7911 157.253 80.4344Z" fill="white"/>
<path id="Vector_4" d="M103.812 80.3791C103.39 74.1103 99.3346 71.2639 94.079 70.3336C89.5588 69.5361 87.7962 67.5647 89.083 62.0269C93.4843 65.1945 97.4421 62.9241 98.6641 59.5128C100.092 55.5145 95.1172 55.0826 92.5651 53.4545C92.4089 53.3612 92.2361 53.301 92.0568 53.2773C89.4074 52.8675 87.2555 52.1697 87.2447 48.6145C87.2447 45.9564 85.0819 46.2333 83.2327 46.2886C81.07 46.3551 79.1018 46.7317 79.4587 49.6113C79.8156 52.4909 78.2908 53.3327 76.0415 54.2741C69.6073 57.1094 66.893 61.2517 67.531 66.8226C68.2339 73.1135 72.4081 76.2258 77.9448 77.0453C83.4815 77.8649 82.1189 81.9961 82.4433 85.3409C82.5731 86.6146 81.6972 87.3677 80.3562 86.5592C79.2291 85.9873 78.1696 85.2849 77.1986 84.4659C73.6084 80.9218 70.9266 83.9122 69.1531 86.2712C66.9903 89.0955 70.5481 90.3027 72.1377 91.5875C74.0079 93.0196 76.1036 94.1134 78.3341 94.8215C80.8969 95.6633 83.4923 95.774 84.033 99.4954C84.3574 101.711 86.6499 101.633 88.5099 101.223C89.8184 100.935 91.8622 101.146 91.5161 99.0081C90.8889 95.1538 93.5167 94.5779 95.9931 93.3928C101.897 90.635 104.255 86.4817 103.812 80.3791ZM80.2481 69.0488C79.9669 69.2371 78.3232 68.1074 77.9448 67.2878C76.8634 64.8401 77.696 63.057 80.7347 61.9716C79.7615 64.5411 83.4058 66.8669 80.2481 69.0488ZM92.0028 85.9058C91.6246 86.0929 91.225 86.2306 90.8132 86.3156C90.6186 85.6399 90.4348 84.9643 90.2293 84.2998C89.5913 82.2508 88.3585 80.0468 90.5753 78.319C91.5918 77.5216 92.684 78.751 93.0625 79.5816C94.079 81.841 94.4143 84.178 92.0028 85.9058Z" fill="white"/>
<path id="Vector_5" d="M147.467 122.998C143.812 123.385 144.158 126.653 143.574 128.901C143.65 133.597 147.11 138.138 150.257 137.761C153.695 137.329 153.587 134.439 153.63 131.902C153.695 127.195 150.549 122.677 147.467 122.998Z" fill="white"/>
<path id="Vector_6" d="M128.261 124.149C123.374 124.692 122.66 129.156 122.346 133.22C122.119 136.122 122.92 139.268 126.52 138.758C131.127 138.116 131.527 133.741 132.457 130.13C131.808 127.45 131.851 123.751 128.261 124.149Z" fill="white"/>
</g>
</g>
</svg>
