<svg width="150" height="150" viewBox="0 0 150 150" fill="none" xmlns="http://www.w3.org/2000/svg">
<path d="M100 100C100 93.0937 80.4125 87.5 56.25 87.5M100 100C100 106.906 80.4125 112.5 56.25 112.5C32.0875 112.5 12.5 106.906 12.5 100M100 100V130.856C100 137.975 80.4125 143.75 56.25 143.75C32.0875 143.75 12.5 137.981 12.5 130.856V100M100 100C123.9 100 143.75 93.8313 143.75 87.5V25M56.25 87.5C32.0875 87.5 12.5 93.0937 12.5 100M56.25 87.5C28.6375 87.5 6.25 81.3313 6.25 75V43.75M56.25 31.25C28.6375 31.25 6.25 36.8437 6.25 43.75M6.25 43.75C6.25 50.6563 28.6375 56.25 56.25 56.25C56.25 62.5813 76.5812 68.75 100.481 68.75C124.375 68.75 143.75 62.5813 143.75 56.25M143.75 25C143.75 18.0937 124.375 12.5 100.481 12.5C76.5812 12.5 57.2125 18.0937 57.2125 25M143.75 25C143.75 31.9063 124.375 37.5 100.481 37.5C76.5875 37.5 57.2125 31.9063 57.2125 25M57.2125 25V88.5375" stroke="#050112" stroke-width="10"/>
</svg>
